{
	"asset":{
		"generator":"Khronos glTF Blender I/O v4.3.47",
		"version":"2.0"
	},
	"scene":0,
	"scenes":[
		{
			"name":"Scene",
			"nodes":[
				0
			]
		}
	],
	"nodes":[
		{
			"mesh":0,
			"name":"Cube"
		}
	],
	"materials":[
		{
			"doubleSided":true,
			"name":"Material.001",
			"pbrMetallicRoughness":{
				"baseColorFactor":[
					0.1503484547138214,
					0.0794934555888176,
					0.033556461334228516,
					1
				],
				"metallicFactor":0,
				"roughnessFactor":0.8623188734054565
			}
		}
	],
	"meshes":[
		{
			"name":"Cube",
			"primitives":[
				{
					"attributes":{
						"POSITION":0,
						"NORMAL":1,
						"TEXCOORD_0":2,
						"TANGENT":3
					},
					"indices":4,
					"material":0
				}
			]
		}
	],
	"accessors":[
		{
			"bufferView":0,
			"componentType":5126,
			"count":237,
			"max":[
				1.8060145378112793,
				1.389127254486084,
				1.751394271850586
			],
			"min":[
				-1.8060145378112793,
				-1,
				-1.751394271850586
			],
			"type":"VEC3"
		},
		{
			"bufferView":1,
			"componentType":5126,
			"count":237,
			"type":"VEC3"
		},
		{
			"bufferView":2,
			"componentType":5126,
			"count":237,
			"type":"VEC2"
		},
		{
			"bufferView":3,
			"componentType":5126,
			"count":237,
			"type":"VEC4"
		},
		{
			"bufferView":4,
			"componentType":5123,
			"count":390,
			"type":"SCALAR"
		}
	],
	"bufferViews":[
		{
			"buffer":0,
			"byteLength":2844,
			"byteOffset":0,
			"target":34962
		},
		{
			"buffer":0,
			"byteLength":2844,
			"byteOffset":2844,
			"target":34962
		},
		{
			"buffer":0,
			"byteLength":1896,
			"byteOffset":5688,
			"target":34962
		},
		{
			"buffer":0,
			"byteLength":3792,
			"byteOffset":7584,
			"target":34962
		},
		{
			"buffer":0,
			"byteLength":780,
			"byteOffset":11376,
			"target":34963
		}
	],
	"buffers":[
		{
			"byteLength":12156,
			"uri":"BoxTrash-b0dacd5eebb14949590a558c74f9b854.bin"
		}
	]
}
