{
	"asset":{
		"generator":"Khronos glTF Blender I/O v4.3.47",
		"version":"2.0"
	},
	"scene":0,
	"scenes":[
		{
			"name":"Scene",
			"nodes":[
				0,
				1,
				2,
				3
			]
		}
	],
	"nodes":[
		{
			"mesh":0,
			"name":"Cube",
			"translation":[
				0,
				1,
				0
			]
		},
		{
			"mesh":1,
			"name":"Cylinder",
			"rotation":[
				0,
				0,
				-0.7071040272712708,
				0.7071096301078796
			]
		},
		{
			"mesh":2,
			"name":"Cube.001"
		},
		{
			"mesh":3,
			"name":"Cylinder.001",
			"rotation":[
				0,
				0,
				-0.7071040272712708,
				0.7071096301078796
			]
		}
	],
	"meshes":[
		{
			"name":"Cube.001",
			"primitives":[
				{
					"attributes":{
						"POSITION":0,
						"NORMAL":1,
						"TEXCOORD_0":2,
						"TANGENT":3
					},
					"indices":4
				}
			]
		},
		{
			"name":"Cylinder",
			"primitives":[
				{
					"attributes":{
						"POSITION":5,
						"NORMAL":6,
						"TEXCOORD_0":7
					},
					"indices":8
				}
			]
		},
		{
			"name":"Cube",
			"primitives":[
				{
					"attributes":{
						"POSITION":9,
						"NORMAL":10,
						"TEXCOORD_0":11,
						"TANGENT":12
					},
					"indices":13
				}
			]
		},
		{
			"name":"Cylinder.002",
			"primitives":[
				{
					"attributes":{
						"POSITION":14,
						"NORMAL":15,
						"TEXCOORD_0":16
					},
					"indices":17
				}
			]
		}
	],
	"accessors":[
		{
			"bufferView":0,
			"componentType":5126,
			"count":604,
			"max":[
				1.220620036125183,
				2.9282386302948,
				1.3149230480194092
			],
			"min":[
				-1.2190728187561035,
				-0.9155994057655334,
				-1.2225606441497803
			],
			"type":"VEC3"
		},
		{
			"bufferView":1,
			"componentType":5126,
			"count":604,
			"type":"VEC3"
		},
		{
			"bufferView":2,
			"componentType":5126,
			"count":604,
			"type":"VEC2"
		},
		{
			"bufferView":3,
			"componentType":5126,
			"count":604,
			"type":"VEC4"
		},
		{
			"bufferView":4,
			"componentType":5123,
			"count":1104,
			"type":"SCALAR"
		},
		{
			"bufferView":5,
			"componentType":5126,
			"count":386,
			"max":[
				-0.008452922105789185,
				1.1793268918991089,
				1.0677577257156372
			],
			"min":[
				-0.7913559079170227,
				1.0000038146972656,
				0.284859836101532
			],
			"type":"VEC3"
		},
		{
			"bufferView":6,
			"componentType":5126,
			"count":386,
			"type":"VEC3"
		},
		{
			"bufferView":7,
			"componentType":5126,
			"count":386,
			"type":"VEC2"
		},
		{
			"bufferView":8,
			"componentType":5123,
			"count":756,
			"type":"SCALAR"
		},
		{
			"bufferView":9,
			"componentType":5126,
			"count":228,
			"max":[
				1.200850009918213,
				4.22758150100708,
				1.1619900465011597
			],
			"min":[
				-1.2000600099563599,
				3.927806854248047,
				-1.2225600481033325
			],
			"type":"VEC3"
		},
		{
			"bufferView":10,
			"componentType":5126,
			"count":228,
			"type":"VEC3"
		},
		{
			"bufferView":11,
			"componentType":5126,
			"count":228,
			"type":"VEC2"
		},
		{
			"bufferView":12,
			"componentType":5126,
			"count":228,
			"type":"VEC4"
		},
		{
			"bufferView":13,
			"componentType":5123,
			"count":420,
			"type":"SCALAR"
		},
		{
			"bufferView":14,
			"componentType":5126,
			"count":386,
			"max":[
				-0.00846862606704235,
				-0.9999786615371704,
				1.0677640438079834
			],
			"min":[
				-0.7913739681243896,
				-1.179332971572876,
				0.28485822677612305
			],
			"type":"VEC3"
		},
		{
			"bufferView":15,
			"componentType":5126,
			"count":386,
			"type":"VEC3"
		},
		{
			"bufferView":16,
			"componentType":5126,
			"count":386,
			"type":"VEC2"
		},
		{
			"bufferView":17,
			"componentType":5123,
			"count":756,
			"type":"SCALAR"
		}
	],
	"bufferViews":[
		{
			"buffer":0,
			"byteLength":7248,
			"byteOffset":0,
			"target":34962
		},
		{
			"buffer":0,
			"byteLength":7248,
			"byteOffset":7248,
			"target":34962
		},
		{
			"buffer":0,
			"byteLength":4832,
			"byteOffset":14496,
			"target":34962
		},
		{
			"buffer":0,
			"byteLength":9664,
			"byteOffset":19328,
			"target":34962
		},
		{
			"buffer":0,
			"byteLength":2208,
			"byteOffset":28992,
			"target":34963
		},
		{
			"buffer":0,
			"byteLength":4632,
			"byteOffset":31200,
			"target":34962
		},
		{
			"buffer":0,
			"byteLength":4632,
			"byteOffset":35832,
			"target":34962
		},
		{
			"buffer":0,
			"byteLength":3088,
			"byteOffset":40464,
			"target":34962
		},
		{
			"buffer":0,
			"byteLength":1512,
			"byteOffset":43552,
			"target":34963
		},
		{
			"buffer":0,
			"byteLength":2736,
			"byteOffset":45064,
			"target":34962
		},
		{
			"buffer":0,
			"byteLength":2736,
			"byteOffset":47800,
			"target":34962
		},
		{
			"buffer":0,
			"byteLength":1824,
			"byteOffset":50536,
			"target":34962
		},
		{
			"buffer":0,
			"byteLength":3648,
			"byteOffset":52360,
			"target":34962
		},
		{
			"buffer":0,
			"byteLength":840,
			"byteOffset":56008,
			"target":34963
		},
		{
			"buffer":0,
			"byteLength":4632,
			"byteOffset":56848,
			"target":34962
		},
		{
			"buffer":0,
			"byteLength":4632,
			"byteOffset":61480,
			"target":34962
		},
		{
			"buffer":0,
			"byteLength":3088,
			"byteOffset":66112,
			"target":34962
		},
		{
			"buffer":0,
			"byteLength":1512,
			"byteOffset":69200,
			"target":34963
		}
	],
	"buffers":[
		{
			"byteLength":70712,
			"uri":"TrashBin-f2962987f79e0ab073caee8ebe1af780.bin"
		}
	]
}
