# Blender 4.3.2
# www.blender.org
mtllib BoxTrash.mtl
o Cube
v 1.201080 0.632546 -1.046690
v 1.201080 -1.000000 -1.046690
v 1.201080 0.632546 1.046690
v 1.201080 -1.000000 1.046690
v -1.201080 0.632546 -1.046690
v -1.201080 -1.000000 -1.046690
v -1.201080 0.632546 1.046690
v -1.201080 -1.000000 1.046690
v 1.245863 0.632546 -1.092380
v 1.245863 -1.000000 -1.092380
v 1.245863 0.632546 1.092380
v 1.245863 -1.000000 1.092380
v -1.245863 0.632546 -1.092380
v -1.245863 -1.000000 -1.092380
v -1.245863 0.632546 1.092380
v -1.245863 -1.000000 1.092380
v 1.245863 0.632546 1.046690
v 1.201080 0.632546 1.092380
v 1.245863 0.632546 -1.046690
v 1.201080 0.632546 -1.092380
v -1.201080 0.632546 -1.092380
v -1.245863 0.632546 -1.046690
v -1.245863 0.632546 1.046690
v -1.201080 0.632546 1.092380
v -1.202116 -1.000000 1.092380
v -1.245863 -1.000000 1.046690
v -1.245863 -1.000000 -1.046690
v -1.201080 -1.000000 -1.092380
v 1.201080 -1.000000 -1.092380
v 1.245863 -1.000000 -1.046690
v 1.245863 -1.000000 1.046690
v 1.201080 -1.000000 1.092380
v 1.770799 1.389127 -1.046690
v 1.770799 1.389127 1.046690
v -1.770799 1.389127 1.046690
v -1.770799 1.389127 -1.046690
v 1.806015 1.361462 -1.046690
v 1.806015 1.361462 1.046690
v -1.806015 1.361462 1.046690
v -1.806015 1.361462 -1.046690
v 1.201080 1.328417 1.719714
v -1.201080 1.328417 1.719714
v -1.201080 1.328417 -1.719714
v 1.201080 1.328417 -1.719714
v 1.201080 1.295494 1.751394
v -1.201080 1.295494 -1.751394
v 1.201080 1.295494 -1.751394
v -1.201080 1.295494 1.751394
v -1.201080 0.691471 -1.057782
v -1.201080 0.658548 -1.089462
v 1.201080 0.658548 -1.089462
v 1.223031 0.691847 -1.057782
v 1.201080 0.659564 -1.046690
v 1.238536 0.639092 -1.046690
v 1.238536 0.639092 1.046690
v 1.201080 0.659564 1.046690
v 1.201080 0.658548 1.089462
v -1.201080 0.658548 1.089462
v 1.223031 0.691847 1.057782
v -1.201080 0.691471 1.057782
v -1.238536 0.639092 1.046690
v -1.238536 0.639092 -1.046690
v -1.223031 0.691847 1.057782
v -1.223031 0.691847 -1.057782
vn -0.0000 -0.0000 -1.0000
vn 1.0000 -0.0000 -0.0000
vn -0.0000 -1.0000 -0.0000
vn -1.0000 -0.0000 -0.0000
vn -0.0000 -0.0000 1.0000
vn -0.0000 1.0000 -0.0000
vn 0.9724 -0.1598 0.1699
vn -0.0000 -0.7206 0.6934
vn -0.7864 -0.6178 -0.0000
vn 0.6178 0.7864 -0.0000
vn -0.6178 0.7864 -0.0000
vn -0.1021 -0.0725 0.9921
vn -0.1021 -0.0725 -0.9921
vn 0.7864 0.6178 -0.0000
vn -0.7882 0.6155 -0.0000
vn 0.7864 -0.6178 -0.0000
vn -0.0000 0.6934 0.7206
vn -0.0000 0.6934 -0.7206
vn 0.9724 -0.1598 -0.1699
vn -0.0001 0.7207 0.6933
vn -0.0001 0.7207 -0.6933
vn -0.0000 -0.7206 -0.6934
vn -0.0000 0.1115 -0.9938
vn -0.0000 0.1844 0.9828
vn 0.9525 -0.2603 -0.1582
vn 0.6663 0.7457 -0.0000
vn -0.0000 0.1844 -0.9828
vn -0.0000 0.1115 0.9938
vn 0.9525 -0.2603 0.1582
vn 0.9378 0.3471 -0.0000
vn -0.0302 -0.1725 -0.9845
vn -0.0302 -0.1725 0.9845
vn -0.6663 0.7457 -0.0000
vt 0.375000 0.750000
vt 0.375000 1.000000
vt 0.625000 1.000000
vt 0.625000 0.750000
vt 0.375000 0.000000
vt 0.375000 0.250000
vt 0.625000 0.250000
vt 0.625000 0.000000
vt 0.375000 0.755496
vt 0.375000 0.742823
vt 0.375000 0.500000
vt 0.625000 0.500000
vt 0.625000 0.754575
vt 0.625000 0.005165
vt 0.375000 0.004861
vt 0.375000 0.271314
vt 0.375000 0.256435
vt 0.625000 0.504957
vt 0.375000 0.506429
vt 0.625000 0.254545
vt 0.375000 0.995611
vt 0.375000 0.985418
vt 0.000000 0.000000
vt 0.625000 0.013661
vt 0.625000 0.736276
vt 0.625000 0.744873
vt 0.625000 0.504956
vt 0.625000 0.495436
vt 0.625000 0.995446
vt 0.625000 0.244832
vt 0.625000 0.244832
vt 0.625000 0.005165
vt 0.375000 0.242895
vt 0.375000 0.493082
vt 0.625000 0.254545
vt 0.625000 0.013661
s 0
usemtl Material.001
f 4/1/1 8/2/1 7/3/1 3/4/1
f 8/5/2 6/6/2 5/7/2 7/8/2
f 32/9/3 4/1/3 31/10/3 12/1/3
f 2/11/4 4/1/4 3/4/4 1/12/4
f 6/6/5 2/11/5 1/12/5 5/7/5
f 12/1/5 11/4/5 18/13/5 32/9/5
f 16/5/4 15/8/4 23/14/4 26/15/4
f 6/6/3 27/16/3 14/6/3 28/17/3
f 10/11/2 9/12/2 19/18/2 30/19/2
f 14/6/1 13/7/1 21/20/1 28/17/1
f 4/1/3 32/9/3 25/21/3 8/2/3
f 8/2/3 26/22/3 27/16/3 6/6/3
f 6/23/3 2/23/3 4/23/3 8/23/3
f 24/24/6 7/8/6 23/14/6 15/8/6
f 57/25/7 59/4/7 41/4/7 45/25/7
f 11/4/6 17/26/6 3/4/6 18/25/6
f 54/27/1 53/12/1 33/12/1 37/18/1
f 9/12/6 20/28/6 1/12/6 19/18/6
f 58/29/8 57/13/8 45/13/8 48/29/8
f 5/7/6 21/20/6 13/7/6 22/30/6
f 62/31/9 61/32/9 39/14/9 40/30/9
f 38/26/10 37/18/10 33/12/10 34/4/10
f 25/21/5 24/29/5 15/3/5 16/2/5
f 26/15/4 23/14/4 22/30/4 27/33/4
f 40/30/11 39/14/11 35/8/11 36/7/11
f 27/33/4 22/30/4 13/7/4 14/6/4
f 61/32/12 63/8/12 35/8/12 39/14/12
f 28/17/3 29/34/3 2/11/3 6/6/3
f 28/17/1 21/20/1 20/28/1 29/34/1
f 29/34/1 20/28/1 9/12/1 10/11/1
f 64/7/13 62/31/13 40/30/13 36/7/13
f 30/19/2 19/18/2 17/26/2 31/10/2
f 30/19/3 31/10/3 4/1/3 2/11/3
f 26/22/3 8/2/3 25/21/3 16/2/3
f 31/10/2 17/26/2 11/4/2 12/1/2
f 56/4/5 55/26/5 38/26/5 34/4/5
f 32/9/5 18/13/5 24/29/5 25/21/5
f 2/11/3 29/34/3 10/11/3 30/19/3
f 63/8/14 64/7/14 36/7/14 35/8/14
f 53/12/15 56/4/15 34/4/15 33/12/15
f 55/26/16 54/27/16 37/18/16 38/26/16
f 42/8/17 48/24/17 45/25/17 41/4/17
f 47/28/18 46/20/18 43/7/18 44/12/18
f 50/35/4 49/7/4 43/7/4 46/20/4
f 52/12/19 51/28/19 47/28/19 44/12/19
f 60/8/4 58/36/4 48/24/4 42/8/4
f 49/7/20 52/12/20 44/12/20 43/7/20
f 59/4/21 60/3/21 42/3/21 41/4/21
f 51/28/22 50/35/22 46/20/22 47/28/22
f 20/28/23 21/20/23 50/35/23 51/28/23
f 5/7/24 1/12/24 52/12/24 49/7/24
f 1/12/25 20/28/25 51/28/25 52/12/25
f 21/20/4 5/7/4 49/7/4 50/35/4
f 17/26/26 19/18/26 54/27/26 55/26/26
f 1/12/4 3/4/4 56/4/4 53/12/4
f 3/4/5 17/26/5 55/26/5 56/4/5
f 19/18/1 1/12/1 53/12/1 54/27/1
f 3/4/27 7/3/27 60/3/27 59/4/27
f 7/8/4 24/24/4 58/36/4 60/8/4
f 24/29/28 18/13/28 57/13/28 58/29/28
f 18/25/29 3/4/29 59/4/29 57/25/29
f 7/8/30 5/7/30 64/7/30 63/8/30
f 5/7/31 22/30/31 62/31/31 64/7/31
f 23/14/32 7/8/32 63/8/32 61/32/32
f 22/30/33 23/14/33 61/32/33 62/31/33
